# xmcd
#
# Track frame offsets:
#	150
#	15211
#	41028
#	58355
#	72607
#	93201
#	107031
#	127992
#	139147
#	157135
#	158054
#	176623
#
# Disc length: 2583 seconds
#
# Revision: 0
# Processed by: cddbd v1.4PL0 Copyright (c) Steve Scherf et al.
# Submitted via: dBpowerAMP V4.0
#
DISCID=a30a150c
DTITLE=Ryan Adams - 48 Hours
DYEAR=1900
DGENRE=
TTITLE0=Halleujah
TTITLE1=Walls
TTITLE2=Desire
TTITLE3=Angelina
TTITLE4=Memphis
TTITLE5=Chin Up Cheer Up
TTITLE6=Born Yesterday
TTITLE7=Blue
TTITLE8=One For The Rose
TTITLE9=Karina (false Start)
TTITLE10=Karina
TTITLE11=Little Moon
EXTD=
EXTT0=
EXTT1=
EXTT2=
EXTT3=
EXTT4=
EXTT5=
EXTT6=
EXTT7=
EXTT8=
EXTT9=
EXTT10=
EXTT11=
PLAYORDER=
